
<svg xmlns="http://www.w3.org/2000/svg" width="41" height="41" fill="none"><g clip-path="url(#a)"><path fill="#fff" d="M18.86 29.03c-.18 0-.36.1-.54.27a.83.83 0 0 0-.26.6c0 .22.09.4.26.53.18.14.36.2.54.2.17 0 .35-.06.53-.2a.63.63 0 0 0 .27-.53.83.83 0 0 0-.27-.6c-.18-.18-.36-.27-.53-.27Zm14-22.66H16.99l-4.93-4.94A3.01 3.01 0 0 0 9.86.5a2.9 2.9 0 0 0-2.14.87 2.9 2.9 0 0 0-.86 2.13c0 .84.26 1.58.8 2.2l.8.67h-3.6c-1.07 0-1.98.4-2.74 1.2A3.95 3.95 0 0 0 1 10.37v5.06c0 .27.07.47.2.6.13.14.31.2.53.2.23 0 .43-.06.6-.2.18-.13.27-.33.27-.6v-5.06c0-.71.22-1.3.67-1.74.44-.44.97-.66 1.6-.66h5.2l9.86 9.86-.13.8a4.9 4.9 0 0 0 1.47 3.6 7.6 7.6 0 0 0 2.86 1.87c1.03.36 2.3.53 3.8.53.71 0 1.47-.04 2.27-.13.36 0 .58-.16.67-.47a1 1 0 0 0-.14-.86 2.69 2.69 0 0 1-.8-1.47 6.27 6.27 0 0 1 0-1.87c.1-.97.1-1.77 0-2.4a4.49 4.49 0 0 0-1.26-2.33 5.73 5.73 0 0 0-2.14-1.4 4.59 4.59 0 0 0-2.46-.13l-5.47-5.6h14.27c.62 0 1.17.22 1.66.66.5.45.74 1.03.74 1.74v16H2.59V22.5c0-.18-.09-.36-.27-.53a.83.83 0 0 0-.6-.27c-.22 0-.4.09-.53.27a.89.89 0 0 0-.2.53v6.93c0 1.07.38 1.98 1.13 2.74a3.73 3.73 0 0 0 2.74 1.13h10.13v2.53c-1.07 0-1.98.38-2.73 1.14a3.72 3.72 0 0 0-1.14 2.73c0 .27.07.47.2.6.14.13.34.2.6.2H25.8c.27 0 .47-.07.6-.2s.2-.33.2-.6c0-1.07-.38-1.98-1.13-2.73a3.73 3.73 0 0 0-2.74-1.14V33.3h10.14c1.06 0 1.97-.38 2.73-1.13a3.73 3.73 0 0 0 1.13-2.74V10.37c0-1.07-.37-2-1.13-2.8a3.62 3.62 0 0 0-2.73-1.2Zm-24-3.87c.26-.27.6-.4 1-.4s.73.13 1 .4l7.86 7.87-2 2.13-7.86-7.87a1.6 1.6 0 0 1-.54-1.13c0-.4.18-.73.54-1Zm13.6 18.67a3.64 3.64 0 0 1 2.67-1.73 4.77 4.77 0 0 0 3.33-1.6c0 .35-.05.97-.14 1.86v1.73c0 .63.14 1.2.4 1.74-1.42 0-2.64-.16-3.66-.47a6.13 6.13 0 0 1-2.6-1.53Zm5.06-5.07.14.13a4.1 4.1 0 0 1-2.67 1.73c-1.42 0-2.58.58-3.47 1.74a4.38 4.38 0 0 1-.13-1.07c0-.97.36-1.82 1.07-2.53a3.46 3.46 0 0 1 2.53-1.07c.98 0 1.82.36 2.53 1.07Zm-6.26-1.2-1.07 1.07-2.4-2.4 2.13-2.14 2.4 2.54-1.06.93Zm3.6 24h-12c.17-.44.46-.8.86-1.07.4-.26.83-.4 1.27-.4h7.73c.45 0 .9.14 1.34.4.44.27.7.63.8 1.07Zm-3.6-3.07h-4.8V33.3h4.8v2.53Zm11.6-4.13h-28c-.63 0-1.16-.22-1.6-.67a2.18 2.18 0 0 1-.67-1.6v-1.46h32.67v1.46c0 .63-.25 1.16-.74 1.6-.49.45-1.04.67-1.66.67ZM1.79 19.83c.18 0 .36-.09.53-.26a.83.83 0 0 0 .27-.6c0-.23-.09-.4-.27-.54a.98.98 0 0 0-.6-.2c-.22 0-.4.07-.53.2a.72.72 0 0 0-.2.54c0 .22.07.42.2.6.13.17.33.26.6.26Z"/></g><defs><clipPath id="a"><path fill="#fff" d="M0 0h40.02v40H0z" transform="matrix(1 0 0 -1 .98 40.5)"/></clipPath></defs></svg>