<svg xmlns="http://www.w3.org/2000/svg" width="35" height="32" fill="none"><g clip-path="url(#a)"><path fill="#1B2336" d="M23.04 14.48H20.4v-1.4c0-.78-.27-1.45-.82-2a2.71 2.71 0 0 0-1.99-.81H14.8a.9.9 0 0 0-.67.27.9.9 0 0 0-.27.66c0 .27.1.5.27.67.18.18.4.27.67.27h2.81a.9.9 0 0 1 .67.27c.18.18.27.4.27.67v1.4H5.4v-1.4a.9.9 0 0 1 .27-.67.9.9 0 0 1 .67-.27h2.81a.9.9 0 0 0 .67-.27.9.9 0 0 0 .27-.67.9.9 0 0 0-.27-.66.9.9 0 0 0-.67-.27h-2.8c-.79 0-1.45.27-2 .82a2.71 2.71 0 0 0-.82 1.99v1.4H.9c-.3 0-.54.12-.72.36a.92.92 0 0 0-.19.8L2.86 28.1a.93.93 0 0 0 .91.73h16.41c.22 0 .41-.07.59-.2.17-.13.28-.31.32-.53l2.86-12.47c.07-.3 0-.56-.18-.8a.89.89 0 0 0-.73-.35Zm-3.61 12.47H4.53l-2.44-10.6h19.78l-2.44 10.6Zm-8.86-7.64V24a.9.9 0 0 1-.27.67.9.9 0 0 1-.67.27.9.9 0 0 1-.67-.27.9.9 0 0 1-.26-.67v-4.69a.9.9 0 0 1 .26-.67.9.9 0 0 1 .67-.27.9.9 0 0 1 .67.27c.18.18.27.4.27.67Zm4.69 0V24a.9.9 0 0 1-.27.67.9.9 0 0 1-.67.27.9.9 0 0 1-.67-.27.9.9 0 0 1-.27-.67v-4.69a.9.9 0 0 1 .27-.67.9.9 0 0 1 .67-.27.9.9 0 0 1 .67.27c.18.18.27.4.27.67Z"/></g><rect width="20" height="20" x="14.5" fill="#2AAA94" rx="10"/><path fill="#fff" d="M26.06 10.5c0-.78-.13-1.36-.4-1.73a1.23 1.23 0 0 0-1.07-.57c-.46 0-.82.19-1.07.56-.25.38-.38.95-.38 1.74 0 .78.13 1.35.38 1.73.25.38.61.57 1.07.57a1.21 1.21 0 0 0 1.08-.56c.13-.2.22-.43.29-.72.07-.29.1-.63.1-1.02Zm1.33 0a5.6 5.6 0 0 1-.22 1.68c-.14.46-.34.83-.6 1.12-.25.28-.55.49-.9.61a3.15 3.15 0 0 1-2.17 0 2.28 2.28 0 0 1-.9-.62 3.12 3.12 0 0 1-.59-1.12 5.56 5.56 0 0 1-.22-1.67c0-.67.08-1.22.22-1.68.15-.46.35-.83.6-1.11.25-.29.55-.5.89-.62a3.12 3.12 0 0 1 2.18 0c.34.13.64.34.9.63.25.28.45.65.6 1.1.14.46.21 1.02.21 1.68Z"/><defs><clipPath id="a"><path fill="#fff" d="M0 0h24v25H0z" transform="matrix(1 0 0 -1 0 32)"/></clipPath></defs></svg>