<svg width="273" height="313" viewBox="0 0 273 313" fill="none" xmlns="http://www.w3.org/2000/svg">
<path opacity="0.3" d="M232.316 133.51L232.316 311.5L39.7893 311.5L39.7893 133.51C39.7893 80.3452 82.888 37.2466 136.053 37.2466C189.218 37.2466 232.316 80.3453 232.316 133.51Z" stroke="white" stroke-width="3"/>
<path opacity="0.3" d="M270.553 136L270.553 311.5L1.55292 311.5L1.55295 136C1.55297 61.7177 61.7707 1.50001 136.053 1.50002C210.335 1.50004 270.553 61.7177 270.553 136Z" stroke="white" stroke-width="3"/>
<path opacity="0.3" d="M19.8022 136.06C19.8022 135.209 19.8114 134.361 19.8295 133.515L18.3299 133.482C18.3668 131.763 18.4406 130.052 18.5505 128.351L20.0474 128.448C20.1569 126.754 20.3026 125.07 20.4839 123.397L18.9926 123.235C19.1776 121.526 19.3993 119.829 19.6566 118.143L21.1394 118.369C21.3957 116.691 21.6878 115.024 22.015 113.37L20.5435 113.079C20.8771 111.393 21.2466 109.72 21.6513 108.061L23.1086 108.416C23.5104 106.769 23.9474 105.135 24.4186 103.516L22.9783 103.097C23.4581 101.448 23.973 99.8142 24.5221 98.1963L25.9426 98.6783C26.4871 97.0738 27.0658 95.485 27.6776 93.9128L26.2798 93.3688C26.9021 91.7697 27.5584 90.1875 28.2477 88.6233L29.6203 89.2281C30.3032 87.6785 31.0189 86.1465 31.7667 84.6332L30.4219 83.9687C31.1816 82.4311 31.9738 80.9125 32.7978 79.4138L34.1122 80.1364C34.9278 78.653 35.7747 77.1894 36.6522 75.7463L35.3706 74.9669C36.2615 73.5019 37.1834 72.0578 38.1355 70.6357L39.382 71.4702C40.3235 70.0638 41.2949 68.6791 42.2953 67.3171L41.0864 66.4291C42.1008 65.0479 43.1447 63.6895 44.2171 62.355L45.3864 63.2946C46.4461 61.9759 47.534 60.6808 48.6491 59.4103L47.5217 58.4208C48.6518 57.1333 49.8095 55.8706 50.9938 54.6337L52.0773 55.6711C53.2468 54.4497 54.4428 53.2537 55.6643 52.0841L54.6269 51.0007C55.8638 49.8163 57.1264 48.6586 58.414 47.5286L59.4034 48.6559C60.674 47.5408 61.9691 46.4529 63.2878 45.3932L62.3482 44.224C63.6827 43.1516 65.041 42.1077 66.4223 41.0932L67.3102 42.3022C68.6723 41.3018 70.057 40.3304 71.4634 39.3888L70.6289 38.1424C72.051 37.1903 73.4951 36.2683 74.9601 35.3774L75.7395 36.6591C77.1826 35.7816 78.6462 34.9346 80.1296 34.1191L79.407 32.8046C80.9057 31.9807 82.4243 31.1884 83.9619 30.4287L84.6263 31.7735C86.1397 31.0258 87.6717 30.3101 89.2213 29.6272L88.6165 28.2545C90.1807 27.5652 91.7629 26.909 93.3619 26.2866L93.906 27.6845C95.4782 27.0726 97.067 26.494 98.6715 25.9494L98.1894 24.529C99.8074 23.9799 101.441 23.465 103.09 22.9852L103.509 24.4254C105.128 23.9542 106.762 23.5173 108.409 23.1155L108.054 21.6582C109.713 21.2535 111.386 20.8839 113.073 20.5504L113.364 22.0219C115.018 21.6947 116.684 21.4025 118.363 21.1463L118.136 19.6635C119.822 19.4061 121.52 19.1845 123.228 18.9995L123.39 20.4907C125.063 20.3095 126.747 20.1637 128.441 20.0543L128.344 18.5574C130.045 18.4475 131.756 18.3737 133.476 18.3368L133.508 19.8364C134.354 19.8182 135.202 19.8091 136.053 19.8091C136.904 19.8091 137.752 19.8182 138.598 19.8364L138.63 18.3368C140.35 18.3737 142.061 18.4475 143.762 18.5574L143.665 20.0543C145.359 20.1637 147.043 20.3095 148.716 20.4907L148.878 18.9995C150.586 19.1845 152.284 19.4061 153.97 19.6635L153.743 21.1463C155.422 21.4026 157.088 21.6947 158.742 22.0219L159.033 20.5504C160.72 20.8839 162.393 21.2535 164.052 21.6582L163.697 23.1155C165.344 23.5173 166.978 23.9542 168.597 24.4255L169.016 22.9852C170.665 23.465 172.299 23.9799 173.917 24.529L173.435 25.9494C175.039 26.494 176.628 27.0726 178.2 27.6845L178.744 26.2866C180.343 26.909 181.925 27.5652 183.49 28.2546L182.885 29.6272C184.434 30.3101 185.966 31.0258 187.48 31.7735L188.144 30.4287C189.682 31.1884 191.2 31.9807 192.699 32.8047L191.976 34.1191C193.46 34.9346 194.924 35.7816 196.367 36.6591L197.146 35.3775C198.611 36.2684 200.055 37.1903 201.477 38.1424L200.643 39.3889C202.049 40.3304 203.434 41.3018 204.796 42.3022L205.684 41.0932C207.065 42.1077 208.423 43.1516 209.758 44.224L208.818 45.3932C210.137 46.453 211.432 47.5408 212.703 48.656L213.692 47.5286C214.98 48.6587 216.242 49.8163 217.479 51.0007L216.442 52.0841C217.663 53.2537 218.859 54.4497 220.029 55.6711L221.112 54.6337C222.297 55.8706 223.454 57.1333 224.584 58.4209L223.457 59.4103C224.572 60.6809 225.66 61.976 226.72 63.2947L227.889 62.3551C228.961 63.6896 230.005 65.0479 231.02 66.4292L229.811 67.3171C230.811 68.6792 231.783 70.0639 232.724 71.4702L233.97 70.6357C234.923 72.0579 235.845 73.502 236.735 74.967L235.454 75.7463C236.331 77.1894 237.178 78.6531 237.994 80.1365L239.308 79.4138C240.132 80.9126 240.924 82.4312 241.684 83.9688L240.339 84.6332C241.087 86.1466 241.803 87.6785 242.486 89.2282L243.858 88.6233C244.548 90.1876 245.204 91.7697 245.826 93.3688L244.428 93.9128C245.04 95.485 245.619 97.0738 246.163 98.6784L247.584 98.1963C248.133 99.8143 248.648 101.448 249.128 103.097L247.687 103.516C248.159 105.135 248.596 106.769 248.997 108.416L250.455 108.061C250.859 109.72 251.229 111.393 251.563 113.079L250.091 113.371C250.418 115.024 250.71 116.691 250.967 118.369L252.449 118.143C252.707 119.829 252.928 121.526 253.113 123.235L251.622 123.397C251.803 125.07 251.949 126.754 252.059 128.448L253.555 128.351C253.665 130.052 253.739 131.763 253.776 133.482L252.276 133.515C252.295 134.361 252.304 135.209 252.304 136.06L252.304 138.517L253.804 138.517L253.804 143.432L252.304 143.432L252.304 148.347L253.804 148.347L253.804 153.262L252.304 153.262L252.304 158.177L253.804 158.177L253.804 163.092L252.304 163.092L252.304 168.007L253.804 168.007L253.804 172.922L252.304 172.922L252.304 177.837L253.804 177.837L253.804 182.752L252.304 182.752L252.304 187.667L253.804 187.667L253.804 192.582L252.304 192.582L252.304 197.497L253.804 197.497L253.804 202.412L252.304 202.412L252.304 207.327L253.804 207.327L253.804 212.242L252.304 212.242L252.304 217.157L253.804 217.157L253.804 222.072L252.304 222.072L252.304 226.987L253.804 226.987L253.804 231.902L252.304 231.902L252.304 236.817L253.804 236.817L253.804 241.732L252.304 241.732L252.304 246.647L253.804 246.647L253.804 251.562L252.304 251.562L252.304 256.477L253.804 256.477L253.804 261.392L252.304 261.392L252.304 266.307L253.804 266.307L253.804 271.222L252.304 271.222L252.304 276.137L253.804 276.137L253.804 281.052L252.304 281.052L252.304 285.967L253.804 285.967L253.804 290.882L252.304 290.882L252.304 295.797L253.804 295.797L253.804 300.712L252.304 300.712L252.304 305.627L253.804 305.627L253.804 310.542L252.304 310.542L252.304 311.5L251.351 311.5L251.351 313L246.444 313L246.444 311.5L241.538 311.5L241.538 313L236.632 313L236.632 311.5L231.725 311.5L231.725 313L226.819 313L226.819 311.5L221.913 311.5L221.913 313L217.007 313L217.007 311.5L212.1 311.5L212.1 313L207.194 313L207.194 311.5L202.288 311.5L202.288 313L197.382 313L197.382 311.5L192.475 311.5L192.475 313L187.569 313L187.569 311.5L182.663 311.5L182.663 313L177.756 313L177.756 311.5L172.85 311.5L172.85 313L167.944 313L167.944 311.5L163.038 311.5L163.038 313L158.131 313L158.131 311.5L153.225 311.5L153.225 313L148.319 313L148.319 311.5L143.412 311.5L143.412 313L138.506 313L138.506 311.5L133.6 311.5L133.6 313L128.694 313L128.694 311.5L123.787 311.5L123.787 313L118.881 313L118.881 311.5L113.975 311.5L113.975 313L109.068 313L109.068 311.5L104.162 311.5L104.162 313L99.2559 313L99.2559 311.5L94.3496 311.5L94.3496 313L89.4433 313L89.4433 311.5L84.5371 311.5L84.5371 313L79.6308 313L79.6308 311.5L74.7245 311.5L74.7245 313L69.8182 313L69.8182 311.5L64.9119 311.5L64.9119 313L60.0057 313L60.0057 311.5L55.0994 311.5L55.0994 313L50.1931 313L50.1931 311.5L45.2868 311.5L45.2868 313L40.3805 313L40.3805 311.5L35.4743 311.5L35.4743 313L30.568 313L30.568 311.5L25.6617 311.5L25.6617 313L20.7554 313L20.7554 311.5L19.8022 311.5L19.8022 310.542L18.3022 310.542L18.3022 305.627L19.8022 305.627L19.8022 300.712L18.3022 300.712L18.3022 295.797L19.8022 295.797L19.8022 290.882L18.3022 290.882L18.3022 285.967L19.8022 285.967L19.8022 281.052L18.3022 281.052L18.3022 276.137L19.8022 276.137L19.8022 271.222L18.3022 271.222L18.3022 266.307L19.8022 266.307L19.8022 261.392L18.3022 261.392L18.3022 256.477L19.8022 256.477L19.8022 251.562L18.3022 251.562L18.3022 246.647L19.8022 246.647L19.8022 241.732L18.3022 241.732L18.3022 236.817L19.8022 236.817L19.8022 231.902L18.3022 231.902L18.3022 226.987L19.8022 226.987L19.8022 222.072L18.3022 222.072L18.3022 217.157L19.8022 217.157L19.8022 212.242L18.3022 212.242L18.3022 207.327L19.8022 207.327L19.8022 202.412L18.3022 202.412L18.3022 197.497L19.8022 197.497L19.8022 192.582L18.3022 192.582L18.3022 187.667L19.8022 187.667L19.8022 182.752L18.3022 182.752L18.3022 177.837L19.8022 177.837L19.8022 172.922L18.3022 172.922L18.3022 168.007L19.8022 168.007L19.8022 163.092L18.3022 163.092L18.3022 158.177L19.8022 158.177L19.8022 153.262L18.3022 153.262L18.3022 148.347L19.8022 148.347L19.8022 143.432L18.3022 143.432L18.3022 138.517L19.8022 138.517L19.8022 136.06Z" stroke="white" stroke-width="3" stroke-dasharray="5 5"/>
</svg>
