<svg width="25" height="25" viewBox="0 0 25 25" fill="none" xmlns="http://www.w3.org/2000/svg">
<g clip-path="url(#clip0_2_37)">
<path d="M11.0107 0C9.49707 0 8.07292 0.284831 6.73828 0.854492C5.38737 1.44043 4.21549 2.22982 3.22266 3.22266C2.22982 4.21549 1.44043 5.38737 0.854492 6.73828C0.284831 8.07292 0 9.49707 0 11.0107C0 12.5244 0.284831 13.9486 0.854492 15.2832C1.44043 16.6178 2.22982 17.7856 3.22266 18.7866C4.21549 19.7876 5.38737 20.5729 6.73828 21.1426C8.07292 21.7285 9.49707 22.0215 11.0107 22.0215C12.5244 22.0215 13.9486 21.7285 15.2832 21.1426C16.6178 20.5729 17.7856 19.7876 18.7866 18.7866C19.7876 17.7856 20.5729 16.6178 21.1426 15.2832C21.7285 13.9486 22.0215 12.5244 22.0215 11.0107C22.0215 9.49707 21.7285 8.07292 21.1426 6.73828C20.5729 5.38737 19.7876 4.21549 18.7866 3.22266C17.7856 2.22982 16.6178 1.44043 15.2832 0.854492C13.9486 0.284831 12.5244 0 11.0107 0ZM11.0107 19.9951C9.77376 19.9951 8.61003 19.7591 7.51953 19.2871C6.42904 18.8151 5.47689 18.1722 4.66309 17.3584C3.84928 16.5446 3.20638 15.5924 2.73438 14.502C2.26237 13.4115 2.02637 12.2477 2.02637 11.0107C2.02637 9.77376 2.26237 8.61003 2.73438 7.51953C3.20638 6.42904 3.84928 5.47689 4.66309 4.66309C5.47689 3.84928 6.42904 3.20638 7.51953 2.73438C8.61003 2.26237 9.77376 2.02637 11.0107 2.02637C12.2477 2.02637 13.4115 2.26237 14.502 2.73438C15.5924 3.20638 16.5446 3.84928 17.3584 4.66309C18.1722 5.47689 18.8151 6.42904 19.2871 7.51953C19.7591 8.61003 19.9951 9.77376 19.9951 11.0107C19.9951 12.2477 19.7591 13.4115 19.2871 14.502C18.8151 15.5924 18.1722 16.5446 17.3584 17.3584C16.5446 18.1722 15.5924 18.8151 14.502 19.2871C13.4115 19.7591 12.2477 19.9951 11.0107 19.9951ZM24.707 23.2666L18.8721 17.4316C18.6768 17.2363 18.4367 17.1387 18.1519 17.1387C17.867 17.1387 17.627 17.2363 17.4316 17.4316C17.2363 17.627 17.1387 17.867 17.1387 18.1519C17.1387 18.4367 17.2363 18.6768 17.4316 18.8721L23.2666 24.707C23.3643 24.8047 23.4741 24.8779 23.5962 24.9268C23.7183 24.9756 23.8444 25 23.9746 25C24.1048 25 24.235 24.9756 24.3652 24.9268C24.4954 24.8779 24.6094 24.8047 24.707 24.707C24.9023 24.5117 25 24.2716 25 23.9868C25 23.702 24.9023 23.4619 24.707 23.2666Z" fill="#1B2336"/>
</g>
<defs>
<clipPath id="clip0_2_37">
<rect width="25" height="25" fill="white" transform="matrix(1 0 0 -1 0 25)"/>
</clipPath>
</defs>
</svg>
