<svg width="41" height="41" viewBox="0 0 41 41" fill="none" xmlns="http://www.w3.org/2000/svg">
<g clip-path="url(#clip0_2_226)">
<path d="M20.99 20.5C20.9011 20.5 20.8122 20.5 20.7234 20.5L4.85669 14.6333C4.50113 14.4556 4.32335 14.1889 4.32335 13.8333C4.32335 13.4778 4.50113 13.2111 4.85669 13.0333L15.6567 9.03333C15.9234 8.94444 16.1456 8.96667 16.3234 9.1C16.5011 9.23333 16.6345 9.38889 16.7234 9.56667C16.8122 9.74444 16.8122 9.94444 16.7234 10.1667C16.6345 10.3889 16.5011 10.5444 16.3234 10.6333L7.52335 13.8333L20.99 18.7667L34.4567 13.8333L25.6567 10.6333C25.4789 10.5444 25.3456 10.3889 25.2567 10.1667C25.1678 9.94444 25.1678 9.74444 25.2567 9.56667C25.3456 9.38889 25.4789 9.23333 25.6567 9.1C25.8345 8.96667 26.0567 8.94444 26.3234 9.03333L37.1234 13.0333C37.4789 13.2111 37.6567 13.4778 37.6567 13.8333C37.6567 14.1889 37.4789 14.4556 37.1234 14.6333L21.2567 20.5H20.99ZM20.99 40.5C20.9011 40.5 20.8122 40.5 20.7234 40.5L11.79 37.1667C11.6122 37.0778 11.4789 36.9444 11.39 36.7667C11.3011 36.5889 11.3011 36.3889 11.39 36.1667C11.4789 35.9444 11.6122 35.7889 11.79 35.7C11.9678 35.6111 12.19 35.5667 12.4567 35.5667L20.99 38.7667L29.5234 35.5667C29.79 35.5667 30.0122 35.6111 30.19 35.7C30.3678 35.7889 30.5011 35.9444 30.59 36.1667C30.6789 36.3889 30.6789 36.5889 30.59 36.7667C30.5011 36.9444 30.3678 37.0778 30.19 37.1667L21.2567 40.5H20.99ZM5.12335 30.1C4.94558 30.1 4.7678 30.0111 4.59002 29.8333C4.41224 29.6556 4.32335 29.4778 4.32335 29.3V13.8333C4.32335 13.5667 4.41224 13.3667 4.59002 13.2333C4.7678 13.1 4.9678 13.0333 5.19002 13.0333C5.41224 13.0333 5.61224 13.1 5.79002 13.2333C5.9678 13.3667 6.05669 13.5667 6.05669 13.8333V29.3C6.05669 29.4778 5.9678 29.6556 5.79002 29.8333C5.61224 30.0111 5.39002 30.1 5.12335 30.1ZM36.8567 30.1C36.59 30.1 36.3678 30.0111 36.19 29.8333C36.0122 29.6556 35.9234 29.4778 35.9234 29.3V13.8333C35.9234 13.5667 36.0122 13.3667 36.19 13.2333C36.3678 13.1 36.5678 13.0333 36.79 13.0333C37.0122 13.0333 37.2122 13.1 37.39 13.2333C37.5678 13.3667 37.6567 13.5667 37.6567 13.8333V29.3C37.6567 29.4778 37.5678 29.6556 37.39 29.8333C37.2122 30.0111 37.0345 30.1 36.8567 30.1ZM20.99 13.8333C20.7234 13.8333 20.5234 13.7444 20.39 13.5667C20.2567 13.3889 20.19 13.2111 20.19 13.0333V6.36666C20.19 6.1 20.2567 5.87778 20.39 5.7C20.5234 5.52222 20.7234 5.45555 20.99 5.5C21.2567 5.54444 21.4567 5.63333 21.59 5.76667C21.7234 5.9 21.79 6.1 21.79 6.36666V13.0333C21.79 13.2111 21.7234 13.3889 21.59 13.5667C21.4567 13.7444 21.2567 13.8333 20.99 13.8333ZM35.9234 36.2333C35.6567 36.2333 35.4345 36.1444 35.2567 35.9667L31.2567 31.9667C31.0789 31.7889 30.99 31.5889 30.99 31.3667C30.99 31.1444 31.0789 30.9444 31.2567 30.7667C31.4345 30.5889 31.6345 30.5 31.8567 30.5C32.0789 30.5 32.2789 30.5889 32.4567 30.7667L36.4567 34.7667C36.6345 34.9444 36.7234 35.1444 36.7234 35.3667C36.7234 35.5889 36.6345 35.7889 36.4567 35.9667C36.2789 36.1444 36.1011 36.2333 35.9234 36.2333ZM6.05669 36.2333C5.87891 36.2333 5.70113 36.1444 5.52335 35.9667C5.34558 35.7889 5.25669 35.5889 5.25669 35.3667C5.25669 35.1444 5.34558 34.9444 5.52335 34.7667L9.52335 30.7667C9.70113 30.5889 9.90113 30.5 10.1234 30.5C10.3456 30.5 10.5456 30.5889 10.7234 30.7667C10.9011 30.9444 10.99 31.1444 10.99 31.3667C10.99 31.5889 10.9011 31.7889 10.7234 31.9667L6.72335 35.9667C6.54558 36.1444 6.32335 36.2333 6.05669 36.2333ZM20.99 40.5C20.7234 40.5 20.5234 40.4111 20.39 40.2333C20.2567 40.0556 20.19 39.8778 20.19 39.7V19.7C20.19 19.4333 20.2567 19.2111 20.39 19.0333C20.5234 18.8556 20.7234 18.7667 20.99 18.7667C21.2567 18.7667 21.4567 18.8556 21.59 19.0333C21.7234 19.2111 21.79 19.4333 21.79 19.7V39.7C21.79 39.8778 21.7234 40.0556 21.59 40.2333C21.4567 40.4111 21.2567 40.5 20.99 40.5ZM20.99 7.16666C20.1011 7.16666 19.3234 6.83333 18.6567 6.16666C17.99 5.5 17.6567 4.72222 17.6567 3.83333C17.6567 2.94444 17.99 2.16666 18.6567 1.5C19.3234 0.833332 20.1011 0.499996 20.99 0.499996C21.8789 0.499996 22.6567 0.833332 23.3234 1.5C23.99 2.16666 24.3234 2.94444 24.3234 3.83333C24.3234 4.72222 23.99 5.5 23.3234 6.16666C22.6567 6.83333 21.8789 7.16666 20.99 7.16666ZM20.99 2.1C20.5456 2.1 20.1678 2.27777 19.8567 2.63333C19.5456 2.98889 19.39 3.38889 19.39 3.83333C19.39 4.27777 19.5456 4.65555 19.8567 4.96666C20.1678 5.27777 20.5456 5.43333 20.99 5.43333C21.4345 5.43333 21.8345 5.27777 22.19 4.96666C22.5456 4.65555 22.7234 4.27777 22.7234 3.83333C22.7234 3.38889 22.5456 2.98889 22.19 2.63333C21.8345 2.27777 21.4345 2.1 20.99 2.1ZM37.6567 40.5C36.7678 40.5 35.99 40.1667 35.3234 39.5C34.6567 38.8333 34.3234 38.0556 34.3234 37.1667C34.3234 36.2778 34.6567 35.5 35.3234 34.8333C35.99 34.1667 36.7678 33.8333 37.6567 33.8333C38.5456 33.8333 39.3234 34.1667 39.99 34.8333C40.6567 35.5 40.99 36.2778 40.99 37.1667C40.99 38.0556 40.6567 38.8333 39.99 39.5C39.3234 40.1667 38.5456 40.5 37.6567 40.5ZM37.6567 35.4333C37.2122 35.4333 36.8122 35.6111 36.4567 35.9667C36.1011 36.3222 35.9456 36.7222 35.99 37.1667C36.0345 37.6111 36.2122 38.0111 36.5234 38.3667C36.8345 38.7222 37.2122 38.8778 37.6567 38.8333C38.1011 38.7889 38.5011 38.6111 38.8567 38.3C39.2122 37.9889 39.39 37.6111 39.39 37.1667C39.39 36.7222 39.2122 36.3222 38.8567 35.9667C38.5011 35.6111 38.1011 35.4333 37.6567 35.4333ZM4.32335 40.5C3.43447 40.5 2.65669 40.1667 1.99002 39.5C1.32335 38.8333 0.990021 38.0556 0.990021 37.1667C0.990021 36.2778 1.32335 35.5 1.99002 34.8333C2.65669 34.1667 3.43447 33.8333 4.32335 33.8333C5.21224 33.8333 5.99002 34.1667 6.65669 34.8333C7.32335 35.5 7.65669 36.2778 7.65669 37.1667C7.65669 38.0556 7.32335 38.8333 6.65669 39.5C5.99002 40.1667 5.21224 40.5 4.32335 40.5ZM4.32335 35.4333C3.87891 35.5222 3.47891 35.7222 3.12335 36.0333C2.7678 36.3444 2.61224 36.7222 2.65669 37.1667C2.70113 37.6111 2.87891 38.0111 3.19002 38.3667C3.50113 38.7222 3.87891 38.8778 4.32335 38.8333C4.7678 38.7889 5.1678 38.6111 5.52335 38.3C5.87891 37.9889 6.03447 37.6111 5.99002 37.1667C5.94558 36.7222 5.7678 36.3222 5.45669 35.9667C5.14558 35.6111 4.7678 35.4333 4.32335 35.4333Z" fill="white"/>
</g>
<defs>
<clipPath id="clip0_2_226">
<rect width="40.02" height="40" fill="white" transform="matrix(1 0 0 -1 0.980011 40.5)"/>
</clipPath>
</defs>
</svg>
