<svg width="25" height="25" viewBox="0 0 25 25" fill="none" xmlns="http://www.w3.org/2000/svg">
<g clip-path="url(#clip0_2_35)">
<path d="M12.5 0.5C10.8438 0.5 9.28906 0.8125 7.83594 1.4375C6.38281 2.07813 5.11328 2.94141 4.02734 4.02734C2.94141 5.11328 2.07813 6.38281 1.4375 7.83594C0.8125 9.28906 0.5 10.8438 0.5 12.5C0.5 14.1562 0.8125 15.7109 1.4375 17.1641C2.07813 18.6172 2.94141 19.8867 4.02734 20.9727C5.11328 22.0586 6.38281 22.9219 7.83594 23.5625C9.28906 24.1875 10.8438 24.5 12.5 24.5C14.1562 24.5 15.7109 24.1875 17.1641 23.5625C18.6172 22.9219 19.8867 22.0586 20.9727 20.9727C22.0586 19.8867 22.9219 18.6172 23.5625 17.1641C24.1875 15.7109 24.5 14.1562 24.5 12.5C24.5 10.8438 24.1875 9.28906 23.5625 7.83594C22.9219 6.38281 22.0586 5.11328 20.9727 4.02734C19.8867 2.94141 18.6172 2.07813 17.1641 1.4375C15.7109 0.8125 14.1562 0.5 12.5 0.5ZM12.5 22.6016C11.1094 22.6016 9.79688 22.3359 8.5625 21.8047C7.34375 21.2734 6.27734 20.5508 5.36328 19.6367C4.44922 18.7227 3.72656 17.6562 3.19531 16.4375C2.66406 15.2031 2.39844 13.8906 2.39844 12.5C2.39844 11.1094 2.66406 9.79688 3.19531 8.5625C3.72656 7.34375 4.44922 6.27734 5.36328 5.36328C6.27734 4.44922 7.34375 3.72656 8.5625 3.19531C9.79688 2.66406 11.1094 2.39844 12.5 2.39844C13.8906 2.39844 15.2031 2.66406 16.4375 3.19531C17.6562 3.72656 18.7227 4.44922 19.6367 5.36328C20.5508 6.27734 21.2734 7.34375 21.8047 8.5625C22.3359 9.79688 22.6016 11.1094 22.6016 12.5C22.6016 13.8906 22.3359 15.2031 21.8047 16.4375C21.2734 17.6562 20.5508 18.7227 19.6367 19.6367C18.7227 20.5508 17.6562 21.2734 16.4375 21.8047C15.2031 22.3359 13.8906 22.6016 12.5 22.6016ZM12.5 14.6328C11.6562 14.6328 10.8281 14.7344 10.0156 14.9375C9.20312 15.1562 8.42188 15.4648 7.67188 15.8633C6.92188 16.2617 6.20313 16.7578 5.51562 17.3516C4.82812 17.9453 4.19531 18.625 3.61719 19.3906L5.11719 20.5391C5.61719 19.8984 6.14844 19.3281 6.71094 18.8281C7.28906 18.3281 7.89063 17.9063 8.51562 17.5625C9.14062 17.2187 9.78906 16.9609 10.4609 16.7891C11.1328 16.6172 11.8125 16.5312 12.5 16.5312C13.1875 16.5312 13.8672 16.6172 14.5391 16.7891C15.2109 16.9609 15.8594 17.2187 16.4844 17.5625C17.1094 17.9063 17.7109 18.3281 18.2891 18.8281C18.8516 19.3281 19.3828 19.8984 19.8828 20.5391L21.3828 19.3906C20.8047 18.625 20.1719 17.9453 19.4844 17.3516C18.7969 16.7578 18.0781 16.2617 17.3281 15.8633C16.5781 15.4648 15.7969 15.1562 14.9844 14.9375C14.1719 14.7344 13.3438 14.6328 12.5 14.6328ZM12.5 4.8125C11.8125 4.8125 11.1719 4.9375 10.5781 5.1875C9.98437 5.45312 9.46094 5.8125 9.00781 6.26562C8.55469 6.71875 8.20313 7.24219 7.95312 7.83594C7.6875 8.44531 7.55469 9.09375 7.55469 9.78125C7.55469 10.4688 7.6875 11.1094 7.95312 11.7031C8.20313 12.3125 8.55469 12.8437 9.00781 13.2969C9.46094 13.75 9.98437 14.1016 10.5781 14.3516C11.1719 14.6172 11.8125 14.75 12.5 14.75C13.1875 14.75 13.8281 14.6172 14.4219 14.3516C15.0156 14.1016 15.5391 13.75 15.9922 13.2969C16.4453 12.8437 16.7969 12.3125 17.0469 11.7031C17.3125 11.1094 17.4453 10.4688 17.4453 9.78125C17.4453 9.09375 17.3125 8.44531 17.0469 7.83594C16.7969 7.24219 16.4453 6.71875 15.9922 6.26562C15.5391 5.8125 15.0156 5.45312 14.4219 5.1875C13.8281 4.9375 13.1875 4.8125 12.5 4.8125ZM12.5 12.8516C11.6562 12.8516 10.9375 12.5508 10.3438 11.9492C9.75 11.3477 9.45312 10.625 9.45312 9.78125C9.45312 8.9375 9.75 8.21484 10.3438 7.61328C10.9375 7.01172 11.6562 6.71094 12.5 6.71094C13.3438 6.71094 14.0625 7.01172 14.6562 7.61328C15.25 8.21484 15.5469 8.9375 15.5469 9.78125C15.5469 10.625 15.25 11.3477 14.6562 11.9492C14.0625 12.5508 13.3438 12.8516 12.5 12.8516Z" fill="#1B2336"/>
</g>
<defs>
<clipPath id="clip0_2_35">
<rect width="24" height="25" fill="white" transform="matrix(1 0 0 -1 0.5 25)"/>
</clipPath>
</defs>
</svg>
