<svg width="41" height="41" fill="none" xmlns="http://www.w3.org/2000/svg"><g clip-path="url(#a)"><path d="M16.723 28.5c-.088 0-.222-.044-.4-.133l-4.266-3.6c-.178-.178-.267-.356-.267-.534 0-.177.089-.355.267-.533l4.266-3.6c.178-.089.356-.133.534-.133.178 0 .31.066.4.2a.821.821 0 0 1 .133.466c0 .178-.044.312-.133.4l-3.734 3.2 3.734 3.2c.089.09.133.223.133.4a.821.821 0 0 1-.133.467c-.09.133-.267.2-.534.2Zm8.534 0c-.267 0-.445-.067-.534-.2a.821.821 0 0 1-.133-.467c0-.177.044-.31.133-.4l3.734-3.2-3.734-3.2c-.088-.088-.133-.222-.133-.4 0-.177.044-.333.133-.466a.448.448 0 0 1 .4-.2c.178 0 .356.044.534.133l4.266 3.6c.178.178.267.356.267.533 0 .178-.089.356-.267.534l-4.266 3.6c-.178.089-.311.133-.4.133Zm-5.734 2.8a.591.591 0 0 1-.266-.067 1.428 1.428 0 0 1-.334-.266c-.133-.134-.155-.29-.066-.467l2.666-12.667c0-.177.09-.31.267-.4.178-.089.356-.133.533-.133.178 0 .311.089.4.267a.567.567 0 0 1 0 .533l-2.666 12.667c0 .355-.178.533-.534.533Zm17.067 6.8H5.39c-1.156 0-2.178-.422-3.067-1.267C1.434 35.99.99 34.944.99 33.7V7.3c0-1.244.444-2.289 1.333-3.133C3.213 3.322 4.234 2.9 5.39 2.9h31.2c1.156 0 2.178.422 3.067 1.267.889.844 1.333 1.889 1.333 3.133v26.4c0 1.244-.444 2.289-1.333 3.133-.89.845-1.911 1.267-3.067 1.267ZM5.39 4.233c-.8 0-1.511.29-2.133.867-.623.578-.934 1.311-.934 2.2v26.4c0 .889.311 1.622.934 2.2.622.578 1.333.867 2.133.867h31.2c.8 0 1.511-.29 2.133-.867.623-.578.934-1.311.934-2.2V7.3c0-.889-.311-1.622-.934-2.2-.622-.578-1.333-.867-2.133-.867H5.39Zm34.933 9.2H1.657a.64.64 0 0 1-.467-.2.64.64 0 0 1-.2-.466.64.64 0 0 1 .2-.467.64.64 0 0 1 .467-.2h38.666a.64.64 0 0 1 .467.2.64.64 0 0 1 .2.467.64.64 0 0 1-.2.466.64.64 0 0 1-.467.2Zm-28-3.2c-.622 0-1.133-.2-1.533-.6-.4-.4-.6-.889-.6-1.466 0-.578.2-1.067.6-1.467.4-.4.889-.6 1.467-.6.578 0 1.066.2 1.466.6.4.4.6.889.6 1.467 0 .577-.2 1.066-.6 1.466-.4.4-.866.6-1.4.6Zm0-2.8c-.266 0-.466.067-.6.2-.133.134-.2.311-.2.534 0 .222.067.4.2.533a.72.72 0 0 0 .534.2.72.72 0 0 0 .533-.2c.133-.133.2-.311.2-.533 0-.223-.067-.4-.2-.534a.64.64 0 0 0-.467-.2Zm-6.533 2.8c-.533 0-1-.2-1.4-.6-.4-.4-.6-.889-.6-1.466 0-.578.2-1.067.6-1.467.4-.4.889-.6 1.467-.6.577 0 1.066.2 1.466.6.4.4.6.889.6 1.467 0 .577-.2 1.066-.6 1.466-.4.4-.91.6-1.533.6Zm0-2.8a.64.64 0 0 0-.467.2.72.72 0 0 0-.2.534c0 .222.067.4.2.533a.72.72 0 0 0 .534.2.72.72 0 0 0 .533-.2.72.72 0 0 0 .2-.533.72.72 0 0 0-.2-.534c-.133-.133-.333-.2-.6-.2Zm12.933 2.8c-.622 0-1.133-.2-1.533-.6-.4-.4-.6-.889-.6-1.466 0-.578.2-1.067.6-1.467.4-.4.889-.6 1.467-.6.578 0 1.066.2 1.466.6.4.4.6.889.6 1.467 0 .577-.2 1.066-.6 1.466-.4.4-.866.6-1.4.6Zm0-2.8c-.266 0-.466.067-.6.2-.133.134-.2.311-.2.534 0 .222.067.422.2.6a.633.633 0 0 0 .534.266.83.83 0 0 0 .6-.266.829.829 0 0 0 .266-.6c0-.223-.088-.4-.266-.534a.887.887 0 0 0-.534-.2Z" fill="#fff"/></g><defs><clipPath id="a"><path fill="#fff" transform="matrix(1 0 0 -1 .98 40.5)" d="M0 0h40.02v40H0z"/></clipPath></defs></svg>